<svg width="440" height="453" viewBox="0 0 440 453" fill="none" xmlns="http://www.w3.org/2000/svg">
<path d="M0.891602 224.185L43.6385 199.502L439.458 428.024L396.706 452.707L0.891602 224.185Z" fill="#6B4932"/>
<path opacity="0.3" d="M165.48 283.902C169.518 286.233 169.518 290.015 165.48 292.351C161.441 294.682 154.889 294.682 150.845 292.351C146.807 290.02 146.807 286.238 150.845 283.902C154.883 281.566 161.436 281.566 165.48 283.902Z" fill="#593E2C"/>
<path opacity="0.3" d="M265.782 341.809C269.82 344.14 269.82 347.922 265.782 350.258C261.738 352.589 255.191 352.589 251.147 350.258C247.109 347.928 247.109 344.145 251.147 341.809C255.191 339.478 261.738 339.478 265.782 341.809Z" fill="#593E2C"/>
<path d="M248.618 300.335C246.006 298.367 239.008 293.808 230.718 296.215C247.11 296.225 256.617 309.321 253.055 345.137C254.879 342.77 257.144 324.43 257.21 321.169C257.379 312.597 256.305 306.116 248.618 300.335Z" fill="#62811D"/>
<path d="M246.021 269.354C242.673 263.604 239.453 260.844 234.254 249.164C226.976 261.825 232.43 272.135 234.633 275.371C238.364 280.845 246.251 283.155 249.384 286.989C249.532 285.542 252.359 280.232 246.021 269.354Z" fill="url(#paint0_linear_1_26725)"/>
<path d="M250.739 283.922C250.187 283.191 249.563 282.465 248.888 281.622C246.762 278.964 243.194 275.555 240.383 271.532C238.742 269.186 235.113 263.64 234.765 255.099C233.595 265.419 238.533 272.35 248.112 283.273C249.282 284.607 250.059 285.629 250.58 286.432L250.739 283.922Z" fill="url(#paint1_linear_1_26725)"/>
<path d="M252.901 295.484C252.691 295.643 252.568 295.97 252.246 295.914C250.738 295.658 253.683 285.221 254.286 283.764C258.493 273.572 272.002 268.752 272.242 254.746C273.249 270.321 259.372 273.684 256.264 286.028C254.475 293.118 256.136 292.99 252.901 295.484Z" fill="#719020"/>
<path d="M298.081 308.989C298.25 305.543 297.054 295.842 290.2 292.008C288.37 290.986 272.989 290.245 272.294 290.782C270.981 291.799 267.597 293.322 268.251 294.748C268.844 296.041 270.137 297.273 271.021 298.398C271.911 299.527 272.734 300.826 273.771 301.822C274.564 302.584 276.394 298.74 277.457 299.026C278.847 299.4 288.385 296.864 298.081 308.989Z" fill="#62811D"/>
<path d="M263.231 322.519C262.587 323.474 263.344 323.398 261.846 323.05C260.231 322.677 260.563 321.915 260.742 320.725C261.049 318.69 263.231 304.618 266.702 294.436C267.786 291.252 270.352 288.747 273.659 288.113C280.227 286.851 288.349 290.117 292.821 293.905C279.251 291.855 265.327 319.406 263.231 322.519Z" fill="url(#paint2_linear_1_26725)"/>
<path d="M261.953 332.558C260.313 333.667 259.382 327.472 259.372 325.913C259.341 322.033 268.251 294.748 280.856 288.098C280.856 288.098 281.673 288.17 281.653 288.446C261.851 304.705 261.953 332.558 261.953 332.558Z" fill="url(#paint3_linear_1_26725)"/>
<path d="M248.852 286.687C243.567 272.667 248.515 259.305 253.897 250.713C258.728 243 264.519 233.896 260.91 225.171C265.005 231.08 263.216 238.778 258.012 248.03C252.507 257.823 247.207 270.479 251.408 282.041C261.079 308.651 260.696 311.662 263.732 344.554C263.936 350.31 252.354 350.064 252.691 344.733C253.627 338.569 257.532 309.694 248.852 286.687Z" fill="url(#paint4_linear_1_26725)"/>
<path opacity="0.3" d="M53.7378 219.39C57.7758 221.721 57.7758 225.503 53.7378 227.839C49.6998 230.17 43.1469 230.17 39.1089 227.839C35.0708 225.509 35.0708 221.726 39.1089 219.39C43.1469 217.054 49.6998 217.054 53.7378 219.39Z" fill="#593E2C"/>
<path d="M36.5734 177.911C33.9614 175.943 26.9639 171.384 18.6731 173.791C35.0706 173.801 44.5728 186.897 41.0101 222.713C42.8349 220.346 45.0992 202.006 45.1657 198.745C45.3344 190.173 44.261 183.697 36.5734 177.911Z" fill="#62811D"/>
<path d="M33.9773 146.936C30.6293 141.185 27.4091 138.425 22.2108 126.745C14.9321 139.401 20.3809 149.716 22.5891 152.952C26.3204 158.426 34.2073 160.737 37.3355 164.565C37.4889 163.119 40.3155 157.808 33.9773 146.936Z" fill="url(#paint5_linear_1_26725)"/>
<path d="M38.7007 161.503C38.1486 160.772 37.525 160.047 36.8503 159.203C34.724 156.545 31.1562 153.136 28.3449 149.113C26.7041 146.767 23.075 141.221 22.7274 132.68C21.5569 143 26.4946 149.931 36.0734 160.854C37.2439 162.188 38.0209 163.205 38.5423 164.013L38.7007 161.503Z" fill="url(#paint6_linear_1_26725)"/>
<path d="M40.8569 173.06C40.6473 173.219 40.5247 173.546 40.2027 173.49C38.6948 173.234 41.639 162.796 42.2421 161.34C46.4488 151.147 59.9584 146.327 60.1986 132.322C61.2056 147.897 47.328 151.26 44.2202 163.604C42.4312 170.694 44.0975 170.566 40.8569 173.06Z" fill="#719020"/>
<path d="M86.0377 186.565C86.2064 183.12 85.0104 173.418 78.1559 169.585C76.326 168.562 60.9457 167.821 60.2505 168.358C58.9369 169.375 55.5531 170.898 56.2074 172.324C56.8003 173.618 58.0935 174.849 58.9778 175.974C59.8672 177.104 60.6901 178.402 61.7277 179.399C62.52 180.16 64.3499 176.316 65.413 176.603C66.8034 176.981 76.3413 174.446 86.0377 186.565Z" fill="#62811D"/>
<path d="M51.1938 200.1C50.5497 201.056 51.3062 200.979 49.8086 200.632C48.1934 200.258 48.5256 199.497 48.7045 198.306C49.0112 196.271 51.1938 182.195 54.6644 172.018C55.7481 168.833 58.314 166.329 61.6211 165.695C68.1893 164.432 76.3114 167.698 80.7839 171.486C67.2079 169.431 53.2894 196.982 51.1938 200.1Z" fill="url(#paint7_linear_1_26725)"/>
<path d="M49.9102 210.139C48.2695 211.248 47.3392 205.053 47.3289 203.494C47.2983 199.614 56.2126 172.33 68.8123 165.68C68.8123 165.68 69.6301 165.751 69.6097 166.027C49.8131 182.282 49.9102 210.139 49.9102 210.139Z" fill="url(#paint8_linear_1_26725)"/>
<path d="M36.8136 164.263C31.5284 150.243 36.4762 136.881 41.8586 128.289C46.6889 120.576 52.4801 111.472 48.8714 102.747C52.9657 108.656 51.1716 116.354 45.9732 125.606C40.4682 135.399 35.1677 148.055 39.3693 159.617C49.0402 186.227 48.6567 189.238 51.6878 222.13C51.8923 227.886 40.3098 227.64 40.6472 222.309C41.5826 216.15 45.4877 187.275 36.8136 164.263Z" fill="url(#paint9_linear_1_26725)"/>
<path opacity="0.3" d="M382.869 409.413C386.907 411.744 386.907 415.527 382.869 417.863C378.826 420.193 372.278 420.193 368.235 417.863C364.197 415.532 364.197 411.749 368.235 409.413C372.278 407.077 378.831 407.077 382.869 409.413Z" fill="#593E2C"/>
<path d="M365.705 367.934C363.093 365.966 356.095 361.406 347.804 363.814C364.202 363.824 373.704 376.92 370.141 412.736C371.966 410.369 374.231 392.029 374.297 388.768C374.466 380.196 373.392 373.72 365.705 367.934Z" fill="#62811D"/>
<path d="M363.109 336.959C359.761 331.208 356.54 328.448 351.342 316.769C344.058 329.43 349.512 339.739 351.72 342.975C355.452 348.449 363.338 350.76 366.472 354.588C366.62 353.142 369.447 347.831 363.109 336.959Z" fill="url(#paint10_linear_1_26725)"/>
<path d="M367.826 351.526C367.274 350.795 366.651 350.07 365.976 349.226C363.85 346.568 360.282 343.159 357.471 339.136C355.83 336.79 352.201 331.244 351.853 322.703C350.683 333.023 355.62 339.954 365.199 350.877C366.37 352.211 367.147 353.228 367.668 354.036L367.826 351.526Z" fill="url(#paint11_linear_1_26725)"/>
<path d="M369.988 363.083C369.779 363.242 369.656 363.569 369.334 363.513C367.826 363.257 370.77 352.82 371.373 351.363C375.58 341.171 389.09 336.35 389.33 322.345C390.337 337.92 376.459 341.283 373.352 353.627C371.563 360.717 373.229 360.589 369.988 363.083Z" fill="#719020"/>
<path d="M415.169 376.588C415.338 373.143 414.142 363.436 407.287 359.607C405.457 358.585 390.077 357.844 389.382 358.381C388.068 359.398 384.684 360.921 385.339 362.347C385.932 363.64 387.225 364.872 388.109 365.997C388.998 367.126 389.821 368.425 390.859 369.421C391.651 370.183 393.481 366.339 394.544 366.625C395.935 367.004 405.473 364.463 415.169 376.588Z" fill="#62811D"/>
<path d="M380.319 390.123C379.675 391.079 380.431 391.002 378.934 390.654C377.319 390.281 377.651 389.52 377.83 388.329C378.136 386.294 380.319 372.217 383.79 362.04C384.873 358.856 387.439 356.351 390.746 355.718C397.315 354.455 405.437 357.721 409.909 361.509C396.338 359.454 382.42 387.005 380.319 390.123Z" fill="url(#paint12_linear_1_26725)"/>
<path d="M379.041 400.161C377.4 401.271 376.47 395.076 376.46 393.517C376.429 389.637 385.343 362.352 397.943 355.702C397.943 355.702 398.761 355.769 398.741 356.05C378.944 372.304 379.041 400.161 379.041 400.161Z" fill="url(#paint13_linear_1_26725)"/>
<path d="M365.94 354.286C360.655 340.266 365.603 326.904 370.985 318.312C375.815 310.599 381.607 301.495 377.998 292.77C382.092 298.679 380.303 306.377 375.1 315.629C369.595 325.422 364.294 338.078 368.496 349.64C378.167 376.25 377.783 379.261 380.819 412.153C381.024 417.909 369.441 417.663 369.779 412.332C370.714 406.173 374.619 377.298 365.94 354.286Z" fill="url(#paint14_linear_1_26725)"/>
<path d="M154.153 191.007V287.618C154.143 288.221 154.536 288.824 155.328 289.284C156.898 290.189 159.448 290.189 161.017 289.284C161.794 288.834 162.188 288.252 162.193 287.664V191.048L154.153 191.007Z" fill="#363333"/>
<path d="M161.022 192.668C162.591 191.763 162.591 190.291 161.022 189.381C159.453 188.476 156.902 188.476 155.333 189.381C153.764 190.286 153.764 191.758 155.333 192.668C156.902 193.573 159.448 193.573 161.022 192.668Z" fill="#423E3E"/>
<path d="M148.469 208.61L126.127 195.709V118.169L148.469 131.065V208.61Z" fill="#C5C0B6"/>
<path d="M191.401 183.82L148.47 208.61V131.065L191.401 106.279V183.82Z" fill="#D8D3CC"/>
<path d="M148.469 131.065L126.127 118.169L169.058 93.3832L191.4 106.279L148.469 131.065Z" fill="#F0ECE6"/>
<path d="M154.153 21.7772V112.076C154.143 112.679 154.536 113.282 155.328 113.742C156.898 114.652 159.448 114.652 161.017 113.742C161.794 113.292 162.188 112.71 162.193 112.122V21.8231L154.153 21.7772Z" fill="#363333"/>
<path d="M161.022 23.4434C162.591 22.5386 162.591 21.0666 161.022 20.1568C159.453 19.252 156.902 19.252 155.333 20.1568C153.764 21.0666 153.764 22.5335 155.333 23.4434C156.902 24.3532 159.448 24.3532 161.022 23.4434Z" fill="#423E3E"/>
<path d="M105.303 40.7813L174.717 0.472534L217.116 44.0016L147.708 84.3104L105.303 40.7813Z" fill="#F0ECE6"/>
<path d="M147.707 84.3104L217.115 44.0015L216.425 45.6372L147.017 85.9511L147.707 84.3104Z" fill="#D8D3CC"/>
<path d="M105.303 40.7812L147.708 84.3103L147.018 85.9511L104.613 42.4834L105.303 40.7812Z" fill="#C5C0B6"/>
<path d="M212.04 43.7768L212.07 42.1462L206.642 36.5748L204.608 36.1506L198.964 39.4525L198.934 41.0831L204.362 46.6545L206.396 47.0788L212.04 43.7768Z" fill="#465266"/>
<path d="M203.867 48.5559L203.898 46.9202L198.469 41.3487L196.435 40.9244L190.792 44.2265L190.761 45.857L196.195 51.4336L198.229 51.8579L203.867 48.5559Z" fill="#465266"/>
<path d="M195.699 53.33L195.729 51.6995L190.296 46.1229L188.261 45.6987L182.618 48.9956L182.588 50.6312L188.021 56.2078L190.055 56.632L195.699 53.33Z" fill="#465266"/>
<path d="M187.526 58.1093L187.557 56.4737L182.128 50.8971L180.089 50.4728L174.446 53.7697L174.415 55.4054L179.854 60.982L181.888 61.4113L187.526 58.1093Z" fill="#465266"/>
<path d="M179.357 62.8833L179.388 61.2477L173.954 55.6711L171.915 55.2418L166.272 58.5437L166.241 60.1794L171.68 65.7611L173.714 66.1853L179.357 62.8833Z" fill="#465266"/>
<path d="M171.189 67.6576L171.22 66.027L165.782 60.4402L163.742 60.0159L158.099 63.318L158.073 64.9485L163.512 70.5353L165.546 70.9596L171.189 67.6576Z" fill="#465266"/>
<path d="M163.016 72.4365L163.046 70.8008L157.608 65.214L155.568 64.7898L149.925 68.0867L149.9 69.7223L155.338 75.3091L157.378 75.7385L163.016 72.4365Z" fill="#465266"/>
<path d="M154.848 77.2107L154.879 75.5751L149.435 69.9882L147.396 69.564L141.753 72.8608L141.727 74.4965L147.171 80.0884L149.205 80.5127L154.848 77.2107Z" fill="#465266"/>
<path d="M204.199 35.7313L204.235 34.1007L198.806 28.5293L196.772 28.105L191.124 31.4019L191.093 33.0324L196.522 38.609L198.556 39.0332L204.199 35.7313Z" fill="#465266"/>
<path d="M196.025 40.5053L196.061 38.8747L190.627 33.2982L188.593 32.8739L182.95 36.1708L182.919 37.8064L188.348 43.383L190.382 43.8073L196.025 40.5053Z" fill="#465266"/>
<path d="M187.853 45.2796L187.883 43.644L182.455 38.0724L180.421 37.6431L174.773 40.9451L174.742 42.5756L180.175 48.1522L182.21 48.5765L187.853 45.2796Z" fill="#465266"/>
<path d="M179.679 50.0538L179.71 48.4181L174.281 42.8415L172.242 42.4173L166.599 45.7142L166.568 47.3447L172.002 52.9264L174.036 53.3506L179.679 50.0538Z" fill="#465266"/>
<path d="M171.507 54.8227L171.537 53.1921L166.104 47.6104L164.069 47.1862L158.421 50.4831L158.391 52.1136L163.829 57.7004L165.864 58.1246L171.507 54.8227Z" fill="#465266"/>
<path d="M163.333 59.5967L163.363 57.9661L157.925 52.3794L155.89 51.9551L150.247 55.252L150.217 56.8876L155.655 62.4693L157.69 62.8987L163.333 59.5967Z" fill="#465266"/>
<path d="M155.16 64.3707L155.191 62.735L149.752 57.1533L147.713 56.7239L142.07 60.0208L142.039 61.6565L147.483 67.2433L149.517 67.6676L155.16 64.3707Z" fill="#465266"/>
<path d="M146.986 69.1447L147.017 67.509L141.574 61.9222L139.539 61.4929L133.891 64.7948L133.865 66.4254L139.309 72.0173L141.344 72.4416L146.986 69.1447Z" fill="#465266"/>
<path d="M196.364 27.686L196.394 26.0554L190.971 20.484L188.937 20.0597L183.288 23.3566L183.253 24.9871L188.681 30.5586L190.715 30.9829L196.364 27.686Z" fill="#465266"/>
<path d="M188.185 32.4548L188.221 30.8243L182.792 25.2528L180.758 24.8286L175.11 28.1204L175.074 29.7509L180.507 35.3274L182.542 35.7568L188.185 32.4548Z" fill="#465266"/>
<path d="M180.011 37.229L180.042 35.5933L174.613 30.0168L172.574 29.5925L166.926 32.8894L166.895 34.52L172.328 40.0966L174.363 40.5259L180.011 37.229Z" fill="#465266"/>
<path d="M171.833 41.9979L171.864 40.3622L166.431 34.7857L164.396 34.3614L158.748 37.6531L158.718 39.2888L164.151 44.8654L166.19 45.2948L171.833 41.9979Z" fill="#465266"/>
<path d="M163.66 46.7669L163.691 45.1312L158.252 39.5547L156.218 39.1253L150.569 42.4221L150.539 44.0527L155.977 49.6395L158.012 50.0638L163.66 46.7669Z" fill="#465266"/>
<path d="M155.482 51.5357L155.513 49.9001L150.074 44.3184L148.04 43.8942L142.392 47.1911L142.361 48.8215L147.8 54.4084L149.834 54.8326L155.482 51.5357Z" fill="#465266"/>
<path d="M147.303 56.3048L147.334 54.6692L141.896 49.0874L139.861 48.6581L134.213 51.955L134.182 53.5907L139.621 59.1774L141.66 59.6017L147.303 56.3048Z" fill="#465266"/>
<path d="M139.13 61.0737L139.16 59.4431L133.717 53.8563L131.677 53.4269L126.029 56.7238L126.003 58.3544L131.447 63.9464L133.481 64.3706L139.13 61.0737Z" fill="#465266"/>
<path d="M188.527 19.6406L188.557 18.0101L183.134 12.4386L181.095 12.0144L175.446 15.3062L175.416 16.9367L180.844 22.5133L182.878 22.9375L188.527 19.6406Z" fill="#465266"/>
<path d="M180.349 24.4095L180.38 22.7789L174.951 17.2023L172.917 16.778L167.264 20.0698L167.233 21.7003L172.661 27.2769L174.701 27.7063L180.349 24.4095Z" fill="#465266"/>
<path d="M172.166 29.1733L172.201 27.5427L166.768 21.9661L164.733 21.5419L159.08 24.8337L159.05 26.4642L164.483 32.0459L166.517 32.4702L172.166 29.1733Z" fill="#465266"/>
<path d="M163.987 33.9424L164.017 32.3067L158.584 26.7301L156.55 26.3058L150.902 29.5977L150.866 31.2282L156.304 36.8099L158.339 37.2341L163.987 33.9424Z" fill="#465266"/>
<path d="M155.809 38.7062L155.84 37.0757L150.406 31.4939L148.367 31.0697L142.719 34.3615L142.688 35.992L148.121 41.5788L150.161 42.003L155.809 38.7062Z" fill="#465266"/>
<path d="M147.631 43.4752L147.661 41.8395L142.223 36.2578L140.183 35.8336L134.535 39.1254L134.504 40.7559L139.943 46.3427L141.982 46.7721L147.631 43.4752Z" fill="#465266"/>
<path d="M139.447 48.2391L139.477 46.6086L134.039 41.0218L132.004 40.5975L126.351 43.8893L126.321 45.5198L131.764 51.1118L133.799 51.536L139.447 48.2391Z" fill="#465266"/>
<path d="M131.269 53.008L131.3 51.3724L125.856 45.7856L123.822 45.3614L118.169 48.6531L118.143 50.2837L123.587 55.8756L125.621 56.3049L131.269 53.008Z" fill="#465266"/>
<path d="M180.686 11.5952L180.722 9.96461L175.294 4.39312L173.259 3.96887L167.606 7.26066L167.575 8.89122L173.004 14.4627L175.038 14.8921L180.686 11.5952Z" fill="#465266"/>
<path d="M172.508 16.3588L172.538 14.7282L167.11 9.15678L165.075 8.72742L159.422 12.0192L159.386 13.6498L164.82 19.2263L166.854 19.6506L172.508 16.3588Z" fill="#465266"/>
<path d="M164.325 21.1227L164.356 19.4922L158.927 13.9156L156.888 13.4913L151.235 16.778L151.204 18.4137L156.637 23.9903L158.672 24.4145L164.325 21.1227Z" fill="#465266"/>
<path d="M156.141 25.8867L156.172 24.2561L150.738 18.6745L148.704 18.2502L143.051 21.542L143.02 23.1725L148.453 28.7542L150.493 29.1785L156.141 25.8867Z" fill="#465266"/>
<path d="M147.957 30.6507L147.988 29.015L142.555 23.4385L140.515 23.0092L134.867 26.3009L134.831 27.9315L140.27 33.5183L142.309 33.9425L147.957 30.6507Z" fill="#465266"/>
<path d="M139.775 35.4145L139.805 33.7788L134.372 28.1971L132.333 27.7678L126.679 31.0595L126.649 32.6951L132.087 38.2769L134.127 38.7062L139.775 35.4145Z" fill="#465266"/>
<path d="M131.596 40.1783L131.622 38.5427L126.183 32.961L124.149 32.5316L118.495 35.8234L118.465 37.4539L123.903 43.0407L125.943 43.4701L131.596 40.1783Z" fill="#465266"/>
<path d="M123.412 44.9421L123.443 43.3064L118 37.7196L115.96 37.2902L110.307 40.582L110.276 42.2125L115.72 47.8045L117.759 48.2339L123.412 44.9421Z" fill="#465266"/>
<path d="M132.772 138.338C132.45 138.154 132.159 137.817 132.001 137.449C131.842 137.076 131.837 136.743 132.001 136.554L136.632 131.208C136.795 131.024 137.081 131.024 137.403 131.208C137.725 131.392 138.017 131.729 138.175 132.102L142.806 142.795C142.97 143.169 142.97 143.501 142.806 143.69C142.648 143.874 142.356 143.874 142.034 143.69L132.772 138.338Z" fill="#302A26"/>
<path d="M132.404 137.101L137.035 131.754C137.132 131.642 137.378 131.78 137.475 132.01L142.106 142.703C142.203 142.928 142.08 143.071 141.886 142.959L132.629 137.612C132.43 137.5 132.307 137.214 132.404 137.101Z" fill="#D39629"/>
<path d="M136.856 137.561C136.749 137.5 136.657 137.362 136.647 137.244L136.391 133.993C136.294 132.843 137.945 133.911 137.858 134.837L137.603 137.796C137.593 137.898 137.501 137.934 137.393 137.868L136.856 137.561ZM137.122 138.41C136.78 138.21 136.504 138.328 136.504 138.67C136.504 139.013 136.78 139.447 137.122 139.647C137.465 139.846 137.741 139.728 137.741 139.386C137.741 139.043 137.465 138.609 137.122 138.41Z" fill="#302A26"/>
<path d="M131.668 189.749V170.806L142.765 177.216V196.154L131.668 189.749Z" fill="#302A26"/>
<path d="M142.289 195.402L132.143 189.544V171.557L142.289 177.415V195.402Z" fill="#D39629"/>
<path d="M139.11 178.325L135.174 176.056V175.611L139.11 177.88V178.325ZM140.756 181.499L133.528 177.328V177.773L140.756 181.944V181.499ZM140.756 183.247L133.528 179.076V178.632L140.756 182.803V183.247ZM140.756 184.546L133.528 180.375V179.93L140.756 184.101V184.546ZM140.756 185.844L133.528 181.673V181.228L140.756 185.399V185.844ZM140.756 187.147L133.528 182.976V182.532L140.756 186.703V187.147ZM140.756 188.446L133.528 184.275V183.83L140.756 188.001V188.446ZM140.756 189.744L133.528 185.573V185.128L140.756 189.299V189.744ZM140.756 191.042L133.528 186.871V186.427L140.756 190.598V191.042ZM140.756 192.341L133.528 188.17V187.725L140.756 191.896V192.341Z" fill="#302A26"/>
<path d="M185.436 120.407L173.27 127.431C172.013 128.156 170.991 127.727 170.991 126.47V124.43C170.991 123.173 172.013 121.563 173.27 120.837L185.436 113.814C186.693 113.088 187.715 113.517 187.715 114.775V116.809C187.71 118.072 186.693 119.682 185.436 120.407Z" fill="#1F231E"/>
<path d="M180.861 119.779C180.8 120.545 180.095 121.471 179.292 121.844C178.49 122.222 177.891 121.905 177.958 121.143C178.019 120.382 178.725 119.452 179.527 119.078C180.33 118.7 180.928 119.017 180.861 119.779Z" fill="#96FFFA"/>
<defs>
<linearGradient id="paint0_linear_1_26725" x1="232.322" y1="251.424" x2="246.851" y2="289.609" gradientUnits="userSpaceOnUse">
<stop stop-color="#B3C94B"/>
<stop offset="0.4179" stop-color="#92AC34"/>
<stop offset="0.7688" stop-color="#7D9A26"/>
<stop offset="1" stop-color="#759421"/>
</linearGradient>
<linearGradient id="paint1_linear_1_26725" x1="235.881" y1="260.11" x2="255.929" y2="300.087" gradientUnits="userSpaceOnUse">
<stop stop-color="#B3C94B"/>
<stop offset="0.4179" stop-color="#92AC34"/>
<stop offset="0.7688" stop-color="#7D9A26"/>
<stop offset="1" stop-color="#759421"/>
</linearGradient>
<linearGradient id="paint2_linear_1_26725" x1="287.233" y1="278.205" x2="258.269" y2="339.832" gradientUnits="userSpaceOnUse">
<stop stop-color="#B3C94B"/>
<stop offset="0.4179" stop-color="#92AC34"/>
<stop offset="0.7688" stop-color="#7D9A26"/>
<stop offset="1" stop-color="#759421"/>
</linearGradient>
<linearGradient id="paint3_linear_1_26725" x1="272.023" y1="301.797" x2="261.603" y2="329.585" gradientUnits="userSpaceOnUse">
<stop stop-color="#B3C94B"/>
<stop offset="0.4179" stop-color="#92AC34"/>
<stop offset="0.7688" stop-color="#7D9A26"/>
<stop offset="1" stop-color="#759421"/>
</linearGradient>
<linearGradient id="paint4_linear_1_26725" x1="259.315" y1="270.105" x2="251.395" y2="343.597" gradientUnits="userSpaceOnUse">
<stop stop-color="#9EBD37"/>
<stop offset="0.1047" stop-color="#91B030"/>
<stop offset="0.3225" stop-color="#7D9C25"/>
<stop offset="0.4663" stop-color="#759421"/>
<stop offset="1" stop-color="#62811D"/>
</linearGradient>
<linearGradient id="paint5_linear_1_26725" x1="20.2804" y1="129.003" x2="34.8088" y2="167.187" gradientUnits="userSpaceOnUse">
<stop stop-color="#B3C94B"/>
<stop offset="0.4179" stop-color="#92AC34"/>
<stop offset="0.7688" stop-color="#7D9A26"/>
<stop offset="1" stop-color="#759421"/>
</linearGradient>
<linearGradient id="paint6_linear_1_26725" x1="23.8396" y1="137.689" x2="43.8873" y2="177.665" gradientUnits="userSpaceOnUse">
<stop stop-color="#B3C94B"/>
<stop offset="0.4179" stop-color="#92AC34"/>
<stop offset="0.7688" stop-color="#7D9A26"/>
<stop offset="1" stop-color="#759421"/>
</linearGradient>
<linearGradient id="paint7_linear_1_26725" x1="75.1916" y1="155.784" x2="46.2281" y2="217.41" gradientUnits="userSpaceOnUse">
<stop stop-color="#B3C94B"/>
<stop offset="0.4179" stop-color="#92AC34"/>
<stop offset="0.7688" stop-color="#7D9A26"/>
<stop offset="1" stop-color="#759421"/>
</linearGradient>
<linearGradient id="paint8_linear_1_26725" x1="59.9818" y1="179.376" x2="49.5616" y2="207.163" gradientUnits="userSpaceOnUse">
<stop stop-color="#B3C94B"/>
<stop offset="0.4179" stop-color="#92AC34"/>
<stop offset="0.7688" stop-color="#7D9A26"/>
<stop offset="1" stop-color="#759421"/>
</linearGradient>
<linearGradient id="paint9_linear_1_26725" x1="47.2731" y1="147.683" x2="39.3527" y2="221.175" gradientUnits="userSpaceOnUse">
<stop stop-color="#9EBD37"/>
<stop offset="0.1047" stop-color="#91B030"/>
<stop offset="0.3225" stop-color="#7D9C25"/>
<stop offset="0.4663" stop-color="#759421"/>
<stop offset="1" stop-color="#62811D"/>
</linearGradient>
<linearGradient id="paint10_linear_1_26725" x1="349.411" y1="319.026" x2="363.939" y2="357.21" gradientUnits="userSpaceOnUse">
<stop stop-color="#B3C94B"/>
<stop offset="0.4179" stop-color="#92AC34"/>
<stop offset="0.7688" stop-color="#7D9A26"/>
<stop offset="1" stop-color="#759421"/>
</linearGradient>
<linearGradient id="paint11_linear_1_26725" x1="352.97" y1="327.712" x2="373.017" y2="367.689" gradientUnits="userSpaceOnUse">
<stop stop-color="#B3C94B"/>
<stop offset="0.4179" stop-color="#92AC34"/>
<stop offset="0.7688" stop-color="#7D9A26"/>
<stop offset="1" stop-color="#759421"/>
</linearGradient>
<linearGradient id="paint12_linear_1_26725" x1="404.321" y1="345.807" x2="375.358" y2="407.433" gradientUnits="userSpaceOnUse">
<stop stop-color="#B3C94B"/>
<stop offset="0.4179" stop-color="#92AC34"/>
<stop offset="0.7688" stop-color="#7D9A26"/>
<stop offset="1" stop-color="#759421"/>
</linearGradient>
<linearGradient id="paint13_linear_1_26725" x1="389.112" y1="369.399" x2="378.692" y2="397.186" gradientUnits="userSpaceOnUse">
<stop stop-color="#B3C94B"/>
<stop offset="0.4179" stop-color="#92AC34"/>
<stop offset="0.7688" stop-color="#7D9A26"/>
<stop offset="1" stop-color="#759421"/>
</linearGradient>
<linearGradient id="paint14_linear_1_26725" x1="376.404" y1="337.706" x2="368.484" y2="411.199" gradientUnits="userSpaceOnUse">
<stop stop-color="#9EBD37"/>
<stop offset="0.1047" stop-color="#91B030"/>
<stop offset="0.3225" stop-color="#7D9C25"/>
<stop offset="0.4663" stop-color="#759421"/>
<stop offset="1" stop-color="#62811D"/>
</linearGradient>
</defs>
</svg>
