<svg width="212" height="35" viewBox="0 0 212 35" fill="none" xmlns="http://www.w3.org/2000/svg">
<path d="M2.81206 15.2868C2.81206 12.0516 2.86026 9.56623 2.95668 7.83079H2.94061L0.642756 7.49334C0.503492 7.09698 0.396366 6.65776 0.321378 6.17569C0.24639 5.69363 0.208896 5.22763 0.208896 4.7777C0.208896 4.4349 0.235677 4.05996 0.28924 3.65288C1.60689 3.18152 3.42267 2.83336 5.73659 2.6084C8.05051 2.38344 10.2787 2.27095 12.4213 2.27095C14.0603 2.27095 15.469 2.3995 16.6474 2.65661C17.8258 2.91371 18.8113 3.49755 19.604 4.40812C20.4075 5.30797 20.8092 6.65776 20.8092 8.45748C20.8092 9.35733 20.6164 10.4072 20.2307 11.607C19.8558 12.7961 19.3737 13.9584 18.7845 15.0939C18.2061 16.2188 17.6222 17.1293 17.033 17.8256C16.1653 18.8648 15.2012 19.4754 14.1406 19.6575C12.3838 19.936 10.5251 20.0753 8.56472 20.0753C8.52187 21.1787 8.5058 21.9714 8.51651 22.4535L10.9108 22.2928C11.4036 23.0962 11.6767 24.0497 11.7303 25.1531C11.7303 25.2066 11.4893 25.4369 11.0072 25.844C10.5251 26.2511 9.88772 26.626 9.09499 26.9688C8.31297 27.3116 7.41311 27.483 6.39542 27.483C5.38843 27.483 4.58499 27.2099 3.98508 26.6635C3.39589 26.1065 3.1013 25.1477 3.1013 23.7872C2.91918 21.559 2.82812 18.7309 2.82812 15.3028L2.81206 15.2868ZM12.9837 15.5599C13.2622 14.3815 13.4925 13.1335 13.6746 11.8159C13.8675 10.4875 13.9746 9.33055 13.996 8.34499C13.9424 8.24858 13.6693 8.16288 13.1765 8.08789C12.6837 8.0129 12.0463 7.97541 11.2643 7.97541C10.718 7.97541 10.0377 7.99684 9.22354 8.03969C9.12713 11.2749 8.99858 13.8727 8.83789 15.8331L12.9837 15.5599ZM24.8367 16.5883C25.4688 16.5883 26.1651 16.6526 26.9257 16.7812C27.697 16.9097 28.404 17.065 29.0468 17.2472V16.749C29.0468 16.4169 29.0361 16.0473 29.0146 15.6403C29.0039 15.2332 28.9825 14.9654 28.9504 14.8368C28.8539 14.6547 28.5754 14.4672 28.1148 14.2744C27.6648 14.0816 26.9257 13.9852 25.8973 13.9852C25.2652 13.9852 24.6118 14.0655 23.9369 14.2262C23.2727 14.3762 22.5335 14.5797 21.7194 14.8368C21.2801 14.1084 20.9266 13.4174 20.6588 12.7639C20.4017 12.0998 20.2732 11.4356 20.2732 10.7714C20.2732 10.5679 20.2892 10.3643 20.3214 10.1608C22.0568 8.81099 24.3011 8.1361 27.0542 8.1361C28.5754 8.1361 29.9252 8.3075 31.1036 8.6503C32.282 8.99311 33.2515 9.65729 34.0121 10.6428C34.7727 11.6284 35.1529 13.0264 35.1529 14.8368C35.1529 16.6044 34.9441 18.3184 34.5263 19.9789C34.1192 21.6286 33.9103 22.4695 33.8996 22.5017L36.2296 21.5054C36.5402 21.8375 36.8134 22.2446 37.0491 22.7267C37.2955 23.198 37.4508 23.7443 37.5151 24.3657C37.3651 24.6871 37.0384 25.0995 36.5349 25.603C36.0314 26.0958 35.4154 26.535 34.687 26.9206C33.9585 27.3063 33.1979 27.4991 32.4052 27.4991C31.516 27.4991 30.8411 27.2367 30.3805 26.7117C29.9306 26.1868 29.7056 25.5066 29.7056 24.671C29.7056 24.1996 29.7752 23.7229 29.9145 23.2409L29.4324 23.0962C29.1325 24.7888 28.4951 25.9458 27.5202 26.5671C26.5454 27.1884 25.4688 27.4991 24.2904 27.4991C23.5191 27.4991 22.7745 27.2849 22.0568 26.8564C21.3391 26.4171 20.7552 25.7851 20.3053 24.9602C19.8554 24.1246 19.6304 23.1498 19.6304 22.0357C19.6304 20.2574 20.075 18.9076 20.9641 17.9863C21.8533 17.0543 23.1441 16.5883 24.8367 16.5883ZM26.6686 22.7106C26.9364 22.657 27.2524 22.507 27.6166 22.2607C27.9916 22.0143 28.3237 21.7197 28.6129 21.3769C28.9022 21.0341 29.0736 20.7073 29.1271 20.3967L29.0307 20.011C28.4629 19.936 27.8577 19.8985 27.2149 19.8985C26.6686 19.8985 26.2936 19.9414 26.0901 20.0271C25.7473 20.4127 25.5759 20.8412 25.5759 21.3126C25.5759 21.6554 25.6616 21.9661 25.833 22.2446C26.0151 22.5231 26.2936 22.6784 26.6686 22.7106ZM37.5414 21.5858C37.5414 19.8396 37.5629 18.522 37.6057 17.6328C37.6486 16.733 37.761 15.4153 37.9432 13.6799L36.0792 13.4388C35.8542 12.7425 35.7042 12.1212 35.6292 11.5748C35.565 11.0285 35.5328 10.3215 35.5328 9.45375C35.7042 9.30377 35.9881 9.12701 36.3845 8.92347C36.7915 8.70922 37.2736 8.52711 37.8307 8.37713C38.3877 8.21644 38.9501 8.1361 39.5179 8.1361C40.8141 8.1361 41.7301 8.41463 42.2657 8.97168C42.812 9.52874 43.0852 10.3643 43.0852 11.4784C43.0852 12.0998 42.9941 12.9407 42.812 14.0012C42.5121 15.7045 42.3621 16.599 42.3621 16.6847C42.3621 16.7383 42.3996 16.7919 42.4746 16.8454C42.5496 16.8883 42.6299 16.9097 42.7156 16.9097C42.812 16.9097 42.8763 16.8722 42.9084 16.7972C43.3369 15.0939 43.7654 13.6692 44.1939 12.5229C44.6225 11.3767 45.2706 10.359 46.1383 9.46982C47.006 8.58067 48.1308 8.1361 49.5128 8.1361C51.2268 8.1361 52.4587 8.66102 53.2086 9.71085C53.9585 10.75 54.3334 12.0623 54.3334 13.6477C54.3334 15.0618 54.1674 16.4276 53.8353 17.7453C53.5032 19.0522 53.0908 20.4181 52.598 21.8429C52.6194 21.7893 52.5444 21.9982 52.373 22.4695L52.4052 22.5017L54.7512 21.5376C55.5868 22.2553 56.0742 23.2087 56.2135 24.3978C56.2135 24.4728 55.9724 24.7781 55.4904 25.3137C55.019 25.8494 54.3923 26.3475 53.6103 26.8081C52.8283 27.2688 51.9284 27.4991 50.9107 27.4991C49.893 27.4991 49.0628 27.2259 48.4201 26.6796C47.7773 26.1333 47.4559 25.2013 47.4559 23.8836C47.4559 22.8338 47.4988 21.4304 47.5845 19.6736C47.6702 17.9167 47.7559 16.5026 47.8416 15.4314C47.5631 15.1314 47.2203 14.9707 46.8132 14.9493C46.4382 15.4314 45.8865 16.3955 45.1581 17.8417C44.4296 19.2879 43.9154 20.3699 43.6155 21.0876C43.594 21.2376 43.5833 21.3822 43.5833 21.5215C43.5833 22.0571 43.6637 22.7802 43.8244 23.6908C43.9851 24.5906 44.1832 25.4316 44.4189 26.2136C44.2261 26.5778 43.8297 26.8831 43.2298 27.1295C42.6299 27.3759 41.8907 27.4991 41.0123 27.4991C40.2196 27.4991 39.5822 27.4348 39.1001 27.3063C38.6288 27.1777 38.2967 27.0438 38.1038 26.9046C37.911 26.7546 37.8146 26.6635 37.8146 26.6314C37.8039 26.535 37.7771 26.2832 37.7343 25.8762C37.6914 25.4584 37.6486 24.8799 37.6057 24.1407C37.5629 23.3908 37.5414 22.5392 37.5414 21.5858ZM64.5474 29.7327C65.2652 29.7327 65.8865 29.6523 66.4114 29.4917C66.5721 29.331 66.6846 29.1435 66.7489 28.9292C66.8132 28.7257 66.8453 28.5329 66.8453 28.3508C66.8453 28.1579 66.8292 28.0133 66.7971 27.9169C66.765 27.8312 66.7114 27.7509 66.6364 27.6759C66.1865 27.6009 65.6562 27.5473 65.0456 27.5152C64.4457 27.4938 64.0868 27.4777 63.969 27.467C62.4799 27.4027 61.2694 27.2956 60.3374 27.1456C59.4054 26.9849 58.6073 26.6421 57.9431 26.1172C57.279 25.5816 56.9469 24.7781 56.9469 23.7069C56.9469 23.1284 57.1343 22.5874 57.5093 22.0839C57.8842 21.5697 58.3716 21.1198 58.9715 20.7341C57.7503 20.2306 56.7701 19.4754 56.0309 18.4684C55.3025 17.4507 54.9383 16.1384 54.9383 14.5315C54.9383 12.9353 55.3453 11.6552 56.1595 10.6911C56.9844 9.71621 57.9967 9.0306 59.1965 8.63423C60.3963 8.23787 61.6176 8.03969 62.8602 8.03969C63.6422 8.03969 64.4082 8.11467 65.1581 8.26465C65.9079 8.41463 66.6043 8.62888 67.247 8.90741L66.5561 4.82591C67.2095 4.42954 68.0237 4.23136 68.9985 4.23136C69.7056 4.23136 70.3644 4.3492 70.975 4.58487C71.5856 4.82055 72.0516 5.158 72.373 5.59721C72.3944 5.70434 72.4051 5.87574 72.4051 6.11142C72.4051 6.98985 72.2444 7.97005 71.9231 9.05203C71.6124 10.1233 71.0714 10.9856 70.3001 11.6391C70.6858 12.4104 70.8786 13.2406 70.8786 14.1298C70.8786 15.4367 70.6268 16.6419 70.1234 17.7453C69.6306 18.8487 68.8057 19.7486 67.6487 20.4449C66.4918 21.1305 64.9867 21.4733 63.1334 21.4733C62.5978 21.4733 62.0407 21.4411 61.4622 21.3769C61.4301 21.9125 61.5586 22.4481 61.8479 22.9838C63.2941 22.7052 64.4617 22.5606 65.3509 22.5499L66.4436 22.5338C67.9219 22.5338 69.0414 22.6249 69.802 22.807C70.6376 23.0105 71.2589 23.4712 71.666 24.1889C72.0838 24.9067 72.2927 25.7797 72.2927 26.8081C72.2927 28.415 71.7999 29.7648 70.8143 30.8575C69.8395 31.9609 68.57 32.7804 67.006 33.3161C65.4527 33.8517 63.8029 34.1195 62.0568 34.1195C60.4392 34.1195 58.9983 33.8463 57.7342 33.3C56.4702 32.7536 55.6721 31.752 55.34 30.2951C55.6935 29.0632 56.3684 28.1312 57.3647 27.4991C58.7037 28.3026 59.9839 28.8757 61.2051 29.2185C62.4371 29.5613 63.5512 29.7327 64.5474 29.7327ZM63.5672 17.5043C64.3386 17.5043 64.7885 17.4561 64.917 17.3596C65.2063 16.7812 65.3509 16.1866 65.3509 15.576C65.3509 14.944 65.2063 14.3494 64.917 13.7923C64.7778 13.6745 64.4671 13.5835 63.985 13.5192C63.5137 13.4549 62.9995 13.4228 62.4424 13.4228C61.7461 13.4228 61.2801 13.4656 61.0444 13.5513C60.7123 14.1405 60.5463 14.7351 60.5463 15.335C60.5463 15.9456 60.7016 16.5241 61.0123 17.0704C61.248 17.2204 61.6015 17.3329 62.0728 17.4078C62.5549 17.4721 63.053 17.5043 63.5672 17.5043ZM76.6415 16.5883C77.2736 16.5883 77.9699 16.6526 78.7305 16.7812C79.5018 16.9097 80.2088 17.065 80.8516 17.2472V16.749C80.8516 16.4169 80.8409 16.0473 80.8194 15.6403C80.8087 15.2332 80.7873 14.9654 80.7552 14.8368C80.6588 14.6547 80.3802 14.4672 79.9196 14.2744C79.4697 14.0816 78.7305 13.9852 77.7021 13.9852C77.07 13.9852 76.4166 14.0655 75.7417 14.2262C75.0775 14.3762 74.3383 14.5797 73.5242 14.8368C73.085 14.1084 72.7314 13.4174 72.4636 12.7639C72.2065 12.0998 72.078 11.4356 72.078 10.7714C72.078 10.5679 72.094 10.3643 72.1262 10.1608C73.8616 8.81099 76.1059 8.1361 78.859 8.1361C80.3802 8.1361 81.73 8.3075 82.9084 8.6503C84.0868 8.99311 85.0563 9.65729 85.8169 10.6428C86.5775 11.6284 86.9578 13.0264 86.9578 14.8368C86.9578 16.6044 86.7489 18.3184 86.3311 19.9789C85.924 21.6286 85.7151 22.4695 85.7044 22.5017L88.0344 21.5054C88.345 21.8375 88.6182 22.2446 88.8539 22.7267C89.1003 23.198 89.2556 23.7443 89.3199 24.3657C89.1699 24.6871 88.8432 25.0995 88.3397 25.603C87.8362 26.0958 87.2202 26.535 86.4918 26.9206C85.7633 27.3063 85.0027 27.4991 84.21 27.4991C83.3208 27.4991 82.6459 27.2367 82.1853 26.7117C81.7354 26.1868 81.5104 25.5066 81.5104 24.671C81.5104 24.1996 81.58 23.7229 81.7193 23.2409L81.2372 23.0962C80.9373 24.7888 80.2999 25.9458 79.325 26.5671C78.3502 27.1884 77.2736 27.4991 76.0952 27.4991C75.3239 27.4991 74.5794 27.2849 73.8616 26.8564C73.1439 26.4171 72.56 25.7851 72.1101 24.9602C71.6602 24.1246 71.4352 23.1498 71.4352 22.0357C71.4352 20.2574 71.8798 18.9076 72.7689 17.9863C73.6581 17.0543 74.9489 16.5883 76.6415 16.5883ZM78.4734 22.7106C78.7412 22.657 79.0572 22.507 79.4215 22.2607C79.7964 22.0143 80.1285 21.7197 80.4177 21.3769C80.707 21.0341 80.8784 20.7073 80.9319 20.3967L80.8355 20.011C80.2678 19.936 79.6625 19.8985 79.0197 19.8985C78.4734 19.8985 78.0985 19.9414 77.8949 20.0271C77.5521 20.4127 77.3807 20.8412 77.3807 21.3126C77.3807 21.6554 77.4664 21.9661 77.6378 22.2446C77.8199 22.5231 78.0985 22.6784 78.4734 22.7106ZM89.3462 21.5858C89.3462 19.8396 89.3677 18.522 89.4105 17.6328C89.4534 16.733 89.5659 15.4153 89.748 13.6799L87.884 13.4388C87.659 12.7425 87.509 12.1212 87.4341 11.5748C87.3698 11.0285 87.3376 10.3215 87.3376 9.45375C87.509 9.30377 87.7929 9.12701 88.1893 8.92347C88.5964 8.70922 89.0784 8.52711 89.6355 8.37713C90.1925 8.21644 90.755 8.1361 91.3227 8.1361C92.6189 8.1361 93.5349 8.41463 94.0705 8.97168C94.6168 9.52874 94.89 10.3643 94.89 11.4784C94.89 12.0998 94.799 12.9407 94.6168 14.0012C94.3169 15.7045 94.1669 16.599 94.1669 16.6847C94.1669 16.7383 94.2044 16.7919 94.2794 16.8454C94.3544 16.8883 94.4347 16.9097 94.5204 16.9097C94.6168 16.9097 94.6811 16.8722 94.7133 16.7972C95.1418 15.0939 95.5703 13.6692 95.9988 12.5229C96.4273 11.3767 97.0754 10.359 97.9431 9.46982C98.8108 8.58067 99.9356 8.1361 101.318 8.1361C103.032 8.1361 104.264 8.66102 105.013 9.71085C105.763 10.75 106.138 12.0623 106.138 13.6477C106.138 15.0618 105.972 16.4276 105.64 17.7453C105.308 19.0522 104.896 20.4181 104.403 21.8429C104.424 21.7893 104.349 21.9982 104.178 22.4695L104.21 22.5017L106.556 21.5376C107.392 22.2553 107.879 23.2087 108.018 24.3978C108.018 24.4728 107.777 24.7781 107.295 25.3137C106.824 25.8494 106.197 26.3475 105.415 26.8081C104.633 27.2688 103.733 27.4991 102.716 27.4991C101.698 27.4991 100.868 27.2259 100.225 26.6796C99.5821 26.1333 99.2608 25.2013 99.2608 23.8836C99.2608 22.8338 99.3036 21.4304 99.3893 19.6736C99.475 17.9167 99.5607 16.5026 99.6464 15.4314C99.3679 15.1314 99.0251 14.9707 98.618 14.9493C98.2431 15.4314 97.6914 16.3955 96.9629 17.8417C96.2344 19.2879 95.7202 20.3699 95.4203 21.0876C95.3989 21.2376 95.3882 21.3822 95.3882 21.5215C95.3882 22.0571 95.4685 22.7802 95.6292 23.6908C95.7899 24.5906 95.9881 25.4316 96.2237 26.2136C96.0309 26.5778 95.6345 26.8831 95.0346 27.1295C94.4347 27.3759 93.6956 27.4991 92.8171 27.4991C92.0244 27.4991 91.387 27.4348 90.9049 27.3063C90.4336 27.1777 90.1015 27.0438 89.9087 26.9046C89.7158 26.7546 89.6194 26.6635 89.6194 26.6314C89.6087 26.535 89.5819 26.2832 89.5391 25.8762C89.4962 25.4584 89.4534 24.8799 89.4105 24.1407C89.3677 23.3908 89.3462 22.5392 89.3462 21.5858ZM111.719 14.9011C111.719 12.4693 112.078 10.3054 112.795 8.40927C113.524 6.50243 114.659 4.99731 116.202 3.89391C117.744 2.79051 119.694 2.23882 122.051 2.23882C123.658 2.23882 125.356 2.44771 127.145 2.8655C127.723 3.20831 128.227 3.56718 128.655 3.94212C129.094 4.30635 129.512 4.75092 129.909 5.27584C129.909 6.03643 129.807 7.04877 129.603 8.31286C129.4 9.56623 129.143 10.7393 128.832 11.8319C128.532 12.9139 128.243 13.6156 127.964 13.937C127.686 14.0762 127.45 14.1726 127.257 14.2262C127.064 14.2691 126.764 14.2905 126.357 14.2905C125.854 14.2905 125.383 14.253 124.943 14.178C124.504 14.103 124.172 14.0012 123.947 13.8727L123.385 8.45748C122.624 8.24322 121.569 8.1361 120.219 8.1361C119.855 8.1361 119.587 8.14146 119.416 8.15217C118.955 9.63051 118.698 11.6177 118.644 14.1137C118.634 14.4137 118.628 14.869 118.628 15.4796C118.628 16.9151 118.703 18.0774 118.853 18.9665C118.992 19.8021 119.142 20.4288 119.303 20.8466C119.464 21.2644 119.742 21.5858 120.139 21.8107C120.546 22.0357 121.151 22.1482 121.955 22.1482C123.036 22.1482 124.033 21.9928 124.943 21.6822C125.865 21.3608 126.866 20.8948 127.948 20.2842C128.355 20.7234 128.666 21.0823 128.88 21.3608C129.105 21.6393 129.309 21.9821 129.491 22.3892C129.684 22.7963 129.812 23.2623 129.876 23.7872C129.705 24.1407 129.25 24.6121 128.511 25.2013C127.771 25.7905 126.802 26.3207 125.602 26.7921C124.402 27.2634 123.058 27.4991 121.569 27.4991C118.087 27.4991 115.575 26.4118 114.033 24.2371C112.49 22.0625 111.719 18.9505 111.719 14.9011ZM129.935 4.11888C129.935 3.17617 130.24 2.41022 130.851 1.82102C131.472 1.23183 132.458 0.937236 133.808 0.937236C135.157 0.937236 136.138 1.23183 136.748 1.82102C137.37 2.41022 137.68 3.17617 137.68 4.11888C137.68 4.65451 137.493 5.14729 137.118 5.59721C136.754 6.04714 136.271 6.40602 135.672 6.67383C135.072 6.93093 134.45 7.05948 133.808 7.05948C133.111 7.05948 132.463 6.90951 131.863 6.60955C131.274 6.29889 130.803 5.91324 130.449 5.45259C130.106 4.99195 129.935 4.54738 129.935 4.11888ZM129.148 13.3103C129.008 12.7854 128.912 12.3087 128.858 11.8802C128.805 11.4409 128.778 10.9856 128.778 10.5143L128.794 10.0644C129.019 9.77513 129.367 9.48589 129.839 9.19665C130.321 8.89669 130.878 8.64495 131.51 8.44141C132.152 8.23787 132.817 8.1361 133.502 8.1361C135.002 8.1361 136.068 8.47355 136.7 9.14844C137.332 9.82333 137.648 10.8732 137.648 12.2979C137.648 13.1549 137.525 14.2744 137.278 15.6563C137.043 17.0383 136.754 18.3827 136.411 19.6896C136.079 20.9859 135.789 21.9125 135.543 22.4695L135.575 22.5017L137.953 21.634C138.382 21.9982 138.703 22.3999 138.917 22.8391C139.142 23.2784 139.287 23.7872 139.351 24.3657C139.351 24.4407 139.116 24.7513 138.644 25.2977C138.173 25.8333 137.546 26.3368 136.764 26.8081C135.993 27.2688 135.098 27.4991 134.081 27.4991C133.052 27.4991 132.217 27.2206 131.574 26.6635C130.942 26.1065 130.626 25.1531 130.626 23.8033C130.626 22.2285 130.669 20.5574 130.754 18.7898C130.84 17.0222 130.974 15.3082 131.156 13.6477L129.148 13.3103ZM139.924 21.5858C139.924 19.8396 139.945 18.522 139.988 17.6328C140.031 16.733 140.144 15.4153 140.326 13.6799L138.478 13.4388C138.253 12.7425 138.103 12.1212 138.028 11.5748C137.964 11.0285 137.931 10.3215 137.931 9.45375C138.103 9.30377 138.387 9.12701 138.783 8.92347C139.19 8.70922 139.667 8.52711 140.213 8.37713C140.77 8.21644 141.333 8.1361 141.901 8.1361C143.197 8.1361 144.113 8.41463 144.648 8.97168C145.195 9.52874 145.468 10.3643 145.468 11.4784C145.468 12.0998 145.377 12.9407 145.195 14.0012C144.895 15.7045 144.745 16.599 144.745 16.6847C144.745 16.7383 144.782 16.7919 144.857 16.8454C144.932 16.8883 145.013 16.9097 145.098 16.9097C145.195 16.9097 145.259 16.8722 145.291 16.7972C145.28 16.8401 145.404 16.2991 145.661 15.1743C145.971 13.6959 146.287 12.4908 146.609 11.5588C146.941 10.6268 147.466 9.82869 148.183 9.16451C148.901 8.50033 149.876 8.16824 151.108 8.16824C152.629 8.16824 153.727 8.60745 154.402 9.48589C155.077 10.3536 155.414 11.5106 155.414 12.9568C155.414 14.103 155.222 15.3778 154.836 16.7812C154.836 16.8347 154.873 16.8883 154.948 16.9419C155.023 16.9847 155.104 17.0061 155.189 17.0061C155.286 17.0061 155.35 16.9686 155.382 16.8936L155.607 15.9938C155.993 14.4083 156.373 13.0907 156.748 12.0408C157.134 10.991 157.707 10.0858 158.468 9.3252C159.239 8.55389 160.24 8.16824 161.472 8.16824C163.09 8.16824 164.252 8.6878 164.959 9.72692C165.677 10.766 166.036 12.073 166.036 13.6477C166.036 14.7618 165.929 15.8813 165.715 17.0061C165.511 18.1309 165.291 19.0737 165.056 19.8343C164.831 20.5948 164.552 21.4733 164.22 22.4695L164.252 22.5017L166.631 21.5054C167.466 22.2232 167.954 23.1766 168.093 24.3657C168.093 24.4407 167.852 24.7513 167.37 25.2977C166.888 25.8333 166.25 26.3368 165.458 26.8081C164.675 27.2688 163.776 27.4991 162.758 27.4991C161.74 27.4991 160.91 27.2259 160.267 26.6796C159.624 26.1333 159.303 25.2013 159.303 23.8836C159.303 22.416 159.33 20.9109 159.383 19.3683C159.448 17.8149 159.539 16.4223 159.657 15.1903C159.475 15.0404 159.223 14.96 158.901 14.9493C158.58 15.26 158.178 15.9402 157.696 16.9901C157.214 18.0292 156.77 19.1433 156.363 20.3324C155.955 21.5108 155.698 22.4321 155.591 23.0962C155.741 24.1461 155.972 25.1852 156.282 26.2136C156.089 26.5778 155.693 26.8831 155.093 27.1295C154.493 27.3759 153.754 27.4991 152.876 27.4991C152.083 27.4991 151.462 27.4348 151.012 27.3063C150.562 27.1777 150.251 27.0438 150.08 26.9046C149.919 26.7653 149.839 26.6742 149.839 26.6314C149.828 26.535 149.801 26.2832 149.758 25.8762C149.715 25.4584 149.672 24.8799 149.63 24.1407C149.587 23.3908 149.565 22.5392 149.565 21.5858C149.565 20.6752 149.635 19.5343 149.774 18.1631C149.785 17.9917 149.817 17.5846 149.871 16.9419C149.924 16.2991 149.951 15.7153 149.951 15.1903C149.769 15.0404 149.517 14.96 149.196 14.9493C149.014 15.0886 148.505 15.9777 147.669 17.6167C146.834 19.2558 146.277 20.4127 145.998 21.0876C145.977 21.2376 145.966 21.3822 145.966 21.5215C145.966 22.0571 146.046 22.7802 146.207 23.6908C146.368 24.5906 146.566 25.4316 146.802 26.2136C146.609 26.5778 146.212 26.8831 145.612 27.1295C145.013 27.3759 144.273 27.4991 143.395 27.4991C142.602 27.4991 141.965 27.4348 141.483 27.3063C141.011 27.1777 140.679 27.0438 140.486 26.9046C140.294 26.7546 140.197 26.6635 140.197 26.6314C140.186 26.535 140.16 26.2832 140.117 25.8762C140.074 25.4584 140.031 24.8799 139.988 24.1407C139.945 23.3908 139.924 22.5392 139.924 21.5858ZM171.992 16.5883C172.624 16.5883 173.32 16.6526 174.081 16.7812C174.852 16.9097 175.559 17.065 176.202 17.2472V16.749C176.202 16.4169 176.191 16.0473 176.17 15.6403C176.159 15.2332 176.138 14.9654 176.105 14.8368C176.009 14.6547 175.73 14.4672 175.27 14.2744C174.82 14.0816 174.081 13.9852 173.052 13.9852C172.42 13.9852 171.767 14.0655 171.092 14.2262C170.428 14.3762 169.689 14.5797 168.874 14.8368C168.435 14.1084 168.082 13.4174 167.814 12.7639C167.557 12.0998 167.428 11.4356 167.428 10.7714C167.428 10.5679 167.444 10.3643 167.476 10.1608C169.212 8.81099 171.456 8.1361 174.209 8.1361C175.73 8.1361 177.08 8.3075 178.259 8.6503C179.437 8.99311 180.407 9.65729 181.167 10.6428C181.928 11.6284 182.308 13.0264 182.308 14.8368C182.308 16.6044 182.099 18.3184 181.681 19.9789C181.274 21.6286 181.065 22.4695 181.055 22.5017L183.385 21.5054C183.695 21.8375 183.968 22.2446 184.204 22.7267C184.451 23.198 184.606 23.7443 184.67 24.3657C184.52 24.6871 184.193 25.0995 183.69 25.603C183.186 26.0958 182.57 26.535 181.842 26.9206C181.114 27.3063 180.353 27.4991 179.56 27.4991C178.671 27.4991 177.996 27.2367 177.536 26.7117C177.086 26.1868 176.861 25.5066 176.861 24.671C176.861 24.1996 176.93 23.7229 177.07 23.2409L176.587 23.0962C176.288 24.7888 175.65 25.9458 174.675 26.5671C173.7 27.1884 172.624 27.4991 171.445 27.4991C170.674 27.4991 169.93 27.2849 169.212 26.8564C168.494 26.4171 167.91 25.7851 167.46 24.9602C167.01 24.1246 166.785 23.1498 166.785 22.0357C166.785 20.2574 167.23 18.9076 168.119 17.9863C169.008 17.0543 170.299 16.5883 171.992 16.5883ZM173.824 22.7106C174.091 22.657 174.407 22.507 174.772 22.2607C175.147 22.0143 175.479 21.7197 175.768 21.3769C176.057 21.0341 176.229 20.7073 176.282 20.3967L176.186 20.011C175.618 19.936 175.013 19.8985 174.37 19.8985C173.824 19.8985 173.449 19.9414 173.245 20.0271C172.902 20.4127 172.731 20.8412 172.731 21.3126C172.731 21.6554 172.817 21.9661 172.988 22.2446C173.17 22.5231 173.449 22.6784 173.824 22.7106ZM184.134 16.733C184.134 11.7623 184.23 8.34499 184.423 6.481L182.608 6.15963C182.35 5.17407 182.222 4.11352 182.222 2.97798C182.383 2.77445 182.683 2.5227 183.122 2.22275C183.561 1.92279 184.07 1.66034 184.648 1.43537C185.237 1.21041 185.821 1.09792 186.4 1.09792C187.717 1.09792 188.698 1.43537 189.34 2.11026C189.983 2.78516 190.305 3.81892 190.305 5.21156C190.305 5.82218 190.251 6.80774 190.144 8.16824C190.037 9.51802 189.881 10.9696 189.678 12.5229C189.474 14.0655 189.239 15.4421 188.971 16.6526C188.971 16.7169 189.008 16.7758 189.083 16.8294C189.158 16.8829 189.239 16.9097 189.324 16.9097C189.421 16.9097 189.485 16.8722 189.517 16.7972C189.946 15.0939 190.374 13.6692 190.803 12.5229C191.231 11.3767 191.879 10.359 192.747 9.46982C193.615 8.58067 194.74 8.1361 196.121 8.1361C197.835 8.1361 199.067 8.66102 199.817 9.71085C200.567 10.75 200.942 12.0623 200.942 13.6477C200.942 15.0618 200.776 16.4276 200.444 17.7453C200.112 19.0522 199.699 20.4181 199.207 21.8429C199.228 21.7893 199.153 21.9982 198.982 22.4695L199.014 22.5017L201.392 21.5054C202.228 22.2232 202.715 23.1766 202.854 24.3657C202.854 24.4407 202.613 24.7513 202.131 25.2977C201.649 25.8333 201.012 26.3368 200.219 26.8081C199.437 27.2688 198.537 27.4991 197.519 27.4991C196.502 27.4991 195.672 27.2259 195.029 26.6796C194.386 26.1333 194.065 25.2013 194.065 23.8836C194.065 22.8338 194.107 21.4304 194.193 19.6736C194.279 17.9167 194.365 16.5026 194.45 15.4314C194.172 15.1314 193.829 14.9707 193.422 14.9493C193.047 15.4314 192.495 16.3955 191.767 17.8417C191.038 19.2879 190.524 20.3699 190.224 21.0876C190.203 21.2376 190.192 21.3822 190.192 21.5215C190.192 22.0571 190.272 22.7802 190.433 23.6908C190.594 24.5906 190.792 25.4316 191.028 26.2136C190.835 26.5778 190.438 26.8831 189.839 27.1295C189.239 27.3759 188.499 27.4991 187.621 27.4991C186.828 27.4991 186.191 27.4348 185.709 27.3063C185.237 27.1777 184.905 27.0438 184.713 26.9046C184.52 26.7546 184.423 26.6635 184.423 26.6314C184.413 26.535 184.386 26.2832 184.343 25.8762C184.3 25.4584 184.257 24.8799 184.214 24.1407C184.172 23.3908 184.15 22.5392 184.15 21.5858L184.134 16.733ZM202.479 4.11888C202.479 3.17617 202.784 2.41022 203.395 1.82102C204.016 1.23183 205.002 0.937236 206.352 0.937236C207.701 0.937236 208.682 1.23183 209.292 1.82102C209.913 2.41022 210.224 3.17617 210.224 4.11888C210.224 4.65451 210.037 5.14729 209.662 5.59721C209.298 6.04714 208.815 6.40602 208.216 6.67383C207.616 6.93093 206.994 7.05948 206.352 7.05948C205.655 7.05948 205.007 6.90951 204.407 6.60955C203.818 6.29889 203.347 5.91324 202.993 5.45259C202.65 4.99195 202.479 4.54738 202.479 4.11888ZM201.692 13.3103C201.552 12.7854 201.456 12.3087 201.402 11.8802C201.349 11.4409 201.322 10.9856 201.322 10.5143L201.338 10.0644C201.563 9.77513 201.911 9.48589 202.383 9.19665C202.865 8.89669 203.422 8.64495 204.054 8.44141C204.696 8.23787 205.361 8.1361 206.046 8.1361C207.546 8.1361 208.612 8.47355 209.244 9.14844C209.876 9.82333 210.192 10.8732 210.192 12.2979C210.192 13.1549 210.069 14.2744 209.822 15.6563C209.587 17.0383 209.298 18.3827 208.955 19.6896C208.623 20.9859 208.333 21.9125 208.087 22.4695L208.119 22.5017L210.497 21.634C210.926 21.9982 211.247 22.3999 211.461 22.8391C211.686 23.2784 211.831 23.7872 211.895 24.3657C211.895 24.4407 211.66 24.7513 211.188 25.2977C210.717 25.8333 210.09 26.3368 209.308 26.8081C208.537 27.2688 207.642 27.4991 206.625 27.4991C205.596 27.4991 204.761 27.2206 204.118 26.6635C203.486 26.1065 203.17 25.1531 203.17 23.8033C203.17 22.2285 203.213 20.5574 203.298 18.7898C203.384 17.0222 203.518 15.3082 203.7 13.6477L201.692 13.3103Z" fill="#307BC4"/>
</svg>
